<?xml version="1.0"?>
<svg xmlns="http://www.w3.org/2000/svg" xmlns:xlink="http://www.w3.org/1999/xlink" class="" id="Capa_1" style="enable-background:new 0 0 33.003 33.003;" viewBox="0 0 33.003 33.003" x="0px" y="0px" width="512px" height="512px" version="1.1" xml:space="preserve"><g><g>
	<g>
		<path class="active-path" d="M 9.468 32.999 c -2.251 0 -4.674 -0.985 -6.579 -2.889 c -3.382 -3.382 -3.866 -8.401 -1.078 -11.188 c 0.985 -0.986 2.284 -1.598 3.755 -1.769 c 1.729 -0.201 2.802 -1.552 3.288 -2.339 c 0.193 -0.312 0.422 -0.602 0.683 -0.863 c 1.697 -1.697 4.512 -1.906 6.958 -0.557 L 24.088 5.8 c 0.195 -0.195 0.512 -0.195 0.707 0 s 0.195 0.512 0 0.707 l -7.867 7.867 c -0.163 0.166 -0.42 0.193 -0.618 0.071 c -2.126 -1.322 -4.621 -1.234 -6.066 0.212 c -0.206 0.206 -0.387 0.436 -0.539 0.682 c -1.002 1.625 -2.431 2.622 -4.023 2.807 c -1.245 0.145 -2.339 0.658 -3.164 1.482 c -2.397 2.397 -1.914 6.782 1.078 9.774 c 2.992 2.992 7.376 3.474 9.774 1.078 c 0.825 -0.825 1.337 -1.918 1.482 -3.163 c 0.185 -1.592 1.182 -3.021 2.808 -4.024 c 0.247 -0.152 0.477 -0.334 0.682 -0.539 c 1.446 -1.446 1.533 -3.941 0.211 -6.066 c -0.123 -0.198 -0.093 -0.454 0.071 -0.618 l 7.867 -7.866 c 0.195 -0.195 0.512 -0.195 0.707 0 s 0.195 0.512 0 0.707 l -7.594 7.593 c 1.35 2.447 1.141 5.261 -0.556 6.957 c -0.26 0.26 -0.55 0.49 -0.863 0.683 c -0.788 0.486 -2.139 1.559 -2.34 3.288 c -0.171 1.471 -0.783 2.77 -1.768 3.755 C 12.86 32.405 11.216 32.999 9.468 32.999 Z" data-original="#000000" data-old_color="#F9F9F9" fill="#FFFFFF"/>
		<path class="active-path" d="M 28.588 8.186 c -0.128 0 -0.256 -0.049 -0.354 -0.146 c -0.195 -0.195 -0.195 -0.512 0 -0.707 l 3.562 -3.562 l -2.559 -2.559 l -3.562 3.562 c -0.195 0.195 -0.512 0.195 -0.707 0 s -0.195 -0.512 0 -0.707 l 3.916 -3.915 c 0.195 -0.195 0.512 -0.195 0.707 0 l 3.266 3.266 c 0.195 0.195 0.195 0.512 0 0.707 l -3.915 3.915 C 28.844 8.137 28.716 8.186 28.588 8.186 Z" data-original="#000000" data-old_color="#F9F9F9" fill="#FFFFFF"/>
		<path class="active-path" d="M 24.442 6.653 c -0.128 0 -0.256 -0.049 -0.354 -0.146 c -0.195 -0.195 -0.195 -0.512 0 -0.707 c 0.671 -0.671 0.733 -1.383 0.735 -1.414 c 0.021 -0.274 0.254 -0.48 0.533 -0.463 c 0.273 0.019 0.481 0.252 0.465 0.526 c -0.002 0.044 -0.075 1.106 -1.026 2.058 C 24.698 6.604 24.57 6.653 24.442 6.653 Z" data-original="#000000" data-old_color="#F9F9F9" fill="#FFFFFF"/>
		<path class="active-path" d="M 26.854 9.066 c -0.128 0 -0.256 -0.049 -0.354 -0.146 c -0.195 -0.195 -0.195 -0.512 0 -0.707 c 0.952 -0.952 2.014 -1.024 2.058 -1.026 c 0.283 -0.012 0.513 0.194 0.528 0.47 c 0.016 0.275 -0.192 0.51 -0.466 0.528 c -0.04 0.003 -0.747 0.069 -1.413 0.735 C 27.11 9.018 26.982 9.066 26.854 9.066 Z" data-original="#000000" data-old_color="#F9F9F9" fill="#FFFFFF"/>
	</g>
	<path class="active-path" d="M 32.19 5.89 c -0.128 0 -0.256 -0.049 -0.354 -0.146 L 31.184 5.09 c -0.195 -0.195 -0.195 -0.512 0 -0.707 s 0.512 -0.195 0.707 0 l 0.653 0.653 c 0.195 0.195 0.195 0.512 0 0.707 C 32.446 5.841 32.318 5.89 32.19 5.89 Z" data-original="#000000" data-old_color="#F9F9F9" fill="#FFFFFF"/>
	<path class="active-path" d="M 30.514 7.567 c -0.128 0 -0.256 -0.049 -0.354 -0.146 l -0.653 -0.653 c -0.195 -0.195 -0.195 -0.512 0 -0.707 s 0.512 -0.195 0.707 0 l 0.653 0.653 c 0.195 0.195 0.195 0.512 0 0.707 C 30.769 7.518 30.642 7.567 30.514 7.567 Z" data-original="#000000" data-old_color="#F9F9F9" fill="#FFFFFF"/>
	<path class="active-path" d="M 28.271 1.971 c -0.128 0 -0.256 -0.049 -0.354 -0.146 l -0.654 -0.654 c -0.195 -0.195 -0.195 -0.512 0 -0.707 s 0.512 -0.195 0.707 0 l 0.654 0.654 c 0.195 0.195 0.195 0.512 0 0.707 C 28.527 1.922 28.399 1.971 28.271 1.971 Z" data-original="#000000" data-old_color="#F9F9F9" fill="#FFFFFF"/>
	<path class="active-path" d="M 26.595 3.648 c -0.128 0 -0.256 -0.049 -0.354 -0.146 l -0.653 -0.654 c -0.195 -0.195 -0.195 -0.512 0 -0.707 c 0.195 -0.195 0.512 -0.195 0.707 0 l 0.653 0.654 c 0.195 0.195 0.195 0.512 0 0.707 C 26.851 3.599 26.723 3.648 26.595 3.648 Z" data-original="#000000" data-old_color="#F9F9F9" fill="#FFFFFF"/>
	<path class="active-path" d="M 10.584 25.392 c -0.763 0 -1.526 -0.291 -2.106 -0.871 c -0.562 -0.563 -0.873 -1.311 -0.873 -2.106 c 0 -0.795 0.31 -1.544 0.873 -2.106 c 1.161 -1.161 3.052 -1.161 4.213 0 c 0.563 0.563 0.873 1.311 0.873 2.106 c 0 0.796 -0.31 1.544 -0.873 2.106 l 0 0 l 0 0 C 12.11 25.102 11.347 25.392 10.584 25.392 Z M 10.584 20.437 c -0.507 0 -1.014 0.192 -1.399 0.578 c -0.374 0.374 -0.58 0.871 -0.58 1.399 c 0 0.529 0.206 1.026 0.58 1.399 c 0.771 0.771 2.027 0.771 2.799 0 l 0 0 c 0.374 -0.374 0.58 -0.871 0.58 -1.399 c 0 -0.528 -0.206 -1.025 -0.58 -1.399 C 11.598 20.629 11.091 20.437 10.584 20.437 Z" data-original="#000000" data-old_color="#F9F9F9" fill="#FFFFFF"/>
</g></g> </svg>
