<?xml version="1.0"?>
<svg xmlns="http://www.w3.org/2000/svg" viewBox="0 -32 512.002 512" width="512px" height="512px"><g><path class="active-path" d="m 336.16 224.453 h -160.32 c -8.55859 0 -15.5156 6.95703 -15.5156 15.5156 v 192.383 c 0 8.55859 6.95703 15.5195 15.5156 15.5195 h 160.32 c 8.55469 0 15.5156 -6.96094 15.5156 -15.5195 v -192.383 c 0 -8.55859 -6.96094 -15.5156 -15.5156 -15.5156 Z m 0 208.418 h -160.32 c -0.285156 0 -0.515625 -0.234375 -0.515625 -0.519532 v -16.5469 h 120.75 c 4.14453 0 7.5 -3.35547 7.5 -7.5 c 0 -4.14063 -3.35547 -7.5 -7.5 -7.5 h -120.75 v -160.836 c 0 -0.285156 0.230469 -0.515625 0.515625 -0.515625 h 160.32 c 0.285156 0 0.515625 0.230469 0.515625 0.515625 v 160.836 h -8.53125 c -4.14063 0 -7.5 3.35937 -7.5 7.5 c 0 4.14453 3.35938 7.5 7.5 7.5 h 8.53125 v 16.5469 c 0 0.285157 -0.230469 0.519532 -0.515625 0.519532 Z m 0 0" data-original="#000000" data-old_color="#000000" fill="#FFFFFF"/><path class="active-path" d="m 119.727 0 h -96.1953 c -12.9766 0 -23.5313 10.5586 -23.5313 23.5313 v 160.324 c 0 12.9766 10.5586 23.5313 23.5313 23.5313 h 40.5977 v 49.1289 h -0.515625 c -4.14063 0 -7.5 3.35938 -7.5 7.5 s 3.35938 7.5 7.5 7.5 h 0.515625 v 54.6367 l -63.1406 110.496 c -2.05469 3.59766 -0.804687 8.17969 2.79297 10.2344 c 1.17188 0.667969 2.45313 0.988282 3.71484 0.988282 c 2.60156 0 5.13281 -1.35938 6.51563 -3.78125 l 11.5859 -20.2695 h 38.5313 v 16.5508 c 0 4.14063 3.35938 7.5 7.5 7.5 s 7.5 -3.35938 7.5 -7.5 v -16.5508 h 38.5352 l 11.582 20.2695 c 1.38281 2.42188 3.91406 3.78125 6.51953 3.78125 c 1.26172 0 2.54297 -0.320313 3.71484 -0.988282 c 3.59375 -2.05469 4.84375 -6.63672 2.78906 -10.2344 l -63.1406 -110.496 v -54.6367 h 0.515625 c 4.14063 0 7.5 -3.35938 7.5 -7.5 s -3.35938 -7.5 -7.5 -7.5 h -0.515625 v -49.1289 h 40.5977 c 12.9766 0 23.5313 -10.5586 23.5313 -23.5313 v -160.324 c 0 -12.9727 -10.5547 -23.5313 -23.5313 -23.5313 Z m -85.5586 408.82 l 29.9609 -52.4336 v 52.4336 Z m 74.9258 0 h -29.9648 v -52.4336 Z m 19.1641 -224.965 c 0 4.70313 -3.82812 8.53125 -8.53125 8.53125 h -96.1953 c -4.70313 0 -8.53125 -3.82813 -8.53125 -8.53125 v -160.324 c 0 -4.70313 3.82813 -8.53125 8.53125 -8.53125 h 96.1953 c 4.70313 0 8.53125 3.82813 8.53125 8.53125 Z m 0 0" data-original="#000000" data-old_color="#000000" fill="#FFFFFF"/><path class="active-path" d="m 100.816 120.48 c -4.01172 1.03125 -6.42969 5.12109 -5.39453 9.13281 c 0.511719 1.99219 0.773437 4.0625 0.773437 6.14453 c 0 13.5469 -11.0195 24.5664 -24.5664 24.5664 c -13.543 0 -24.5625 -11.0195 -24.5625 -24.5664 c 0 -13.543 11.0195 -24.5625 24.5625 -24.5625 c 2.09766 0 4.17578 0.261719 6.18359 0.78125 c 4.01172 1.03906 8.10156 -1.37109 9.14063 -5.37891 c 1.03516 -4.01172 -1.37109 -8.10156 -5.38281 -9.14063 c -3.23047 -0.839843 -6.57812 -1.26172 -9.94141 -1.26172 c -21.8164 0 -39.5625 17.7461 -39.5625 39.5625 c 0 21.8164 17.75 39.5664 39.5625 39.5664 c 21.8164 0 39.5664 -17.75 39.5664 -39.5664 c 0 -3.34375 -0.421874 -6.66797 -1.25 -9.88281 c -1.03125 -4.01172 -5.11719 -6.42578 -9.12891 -5.39453 Z m 0 0" data-original="#000000" data-old_color="#000000" fill="#FFFFFF"/><path class="active-path" d="m 71.6289 79.1289 c 12.9766 0 23.5313 -10.5547 23.5313 -23.5313 c 0 -12.9766 -10.5547 -23.5313 -23.5313 -23.5313 c -12.9766 0 -23.5313 10.5547 -23.5313 23.5313 c 0 12.9766 10.5547 23.5313 23.5313 23.5313 Z m 0 -32.0625 c 4.70703 0 8.53125 3.82813 8.53125 8.53125 s -3.82813 8.53125 -8.53125 8.53125 s -8.53125 -3.82813 -8.53125 -8.53125 s 3.82813 -8.53125 8.53125 -8.53125 Z m 0 0" data-original="#000000" data-old_color="#000000" fill="#FFFFFF"/><path class="active-path" d="m 488.465 207.387 c 12.9766 0 23.5313 -10.5586 23.5313 -23.5313 v -160.324 c 0 -12.9727 -10.5547 -23.5313 -23.5313 -23.5313 h -96.1914 c -12.9766 0 -23.5313 10.5586 -23.5313 23.5313 v 160.324 c 0 12.9766 10.5547 23.5313 23.5313 23.5313 h 40.5977 v 49.1289 h -0.515625 c -4.14453 0 -7.5 3.35938 -7.5 7.5 s 3.35547 7.5 7.5 7.5 h 0.515625 v 54.6367 l -63.1406 110.496 c -2.05469 3.59766 -0.808594 8.17969 2.78906 10.2344 c 1.17578 0.667969 2.45313 0.988282 3.71484 0.988282 c 2.60547 0 5.13281 -1.35938 6.51953 -3.78125 l 11.582 -20.2695 h 38.5352 v 16.5508 c 0 4.14063 3.35938 7.5 7.5 7.5 s 7.5 -3.35938 7.5 -7.5 v -16.5508 h 38.5352 l 11.582 20.2695 c 1.38281 2.42188 3.91406 3.78125 6.51953 3.78125 c 1.26172 0 2.53906 -0.320313 3.71484 -0.988282 c 3.59375 -2.05469 4.84375 -6.63672 2.78906 -10.2344 l -63.1406 -110.496 v -54.6367 h 0.515625 c 4.14453 0 7.5 -3.35938 7.5 -7.5 s -3.35547 -7.5 -7.5 -7.5 h -0.515625 v -49.1289 Z m -85.5586 201.434 l 29.9648 -52.4336 v 52.4336 Z m 74.9258 0 h -29.9609 v -52.4336 Z m -94.0898 -224.965 v -160.324 c 0 -4.70313 3.82422 -8.53125 8.53125 -8.53125 h 96.1914 c 4.70703 0 8.53125 3.82813 8.53125 8.53125 v 160.324 c 0 4.70313 -3.82813 8.53125 -8.53125 8.53125 h -96.1914 c -4.70703 0 -8.53125 -3.82813 -8.53125 -8.53125 Z m 0 0" data-original="#000000" data-old_color="#000000" fill="#FFFFFF"/><path class="active-path" d="m 479.934 135.758 c 0 -3.34375 -0.417969 -6.66797 -1.24609 -9.88281 c -1.03125 -4.01172 -5.12109 -6.42578 -9.13281 -5.39453 c -4.01172 1.03125 -6.42578 5.12109 -5.39453 9.13281 c 0.511719 1.99219 0.773438 4.0625 0.773438 6.14453 c 0 13.5469 -11.0195 24.5664 -24.5625 24.5664 c -13.5469 0 -24.5664 -11.0195 -24.5664 -24.5664 c 0 -13.543 11.0195 -24.5625 24.5664 -24.5625 c 2.09375 0 4.17578 0.261719 6.17969 0.78125 c 4.00781 1.03906 8.10547 -1.37109 9.14063 -5.38281 c 1.03906 -4.00781 -1.37109 -8.10156 -5.37891 -9.13672 c -3.23438 -0.839843 -6.57813 -1.26172 -9.94141 -1.26172 c -21.8164 0 -39.5625 17.7461 -39.5625 39.5625 c 0 21.8164 17.7461 39.5664 39.5625 39.5664 s 39.5625 -17.75 39.5625 -39.5664 Z m 0 0" data-original="#000000" data-old_color="#000000" fill="#FFFFFF"/><path class="active-path" d="m 440.367 79.1289 c 12.9766 0 23.5352 -10.5547 23.5352 -23.5313 c 0 -12.9766 -10.5586 -23.5313 -23.5352 -23.5313 c -12.9727 0 -23.5313 10.5547 -23.5313 23.5313 c 0 12.9766 10.5586 23.5313 23.5313 23.5313 Z m 0 -32.0625 c 4.70703 0 8.53516 3.82813 8.53516 8.53125 s -3.82813 8.53125 -8.53516 8.53125 c -4.70313 0 -8.53125 -3.82813 -8.53125 -8.53125 s 3.82812 -8.53125 8.53125 -8.53125 Z m 0 0" data-original="#000000" data-old_color="#000000" fill="#FFFFFF"/><path class="active-path" d="m 256 256.516 c -35.0781 0 -63.6133 28.5352 -63.6133 63.6133 c 0 35.0742 28.5352 63.6133 63.6133 63.6133 c 35.0742 0 63.6133 -28.5391 63.6133 -63.6133 c 0 -35.0781 -28.5391 -63.6133 -63.6133 -63.6133 Z m 0 112.227 c -26.8047 0 -48.6133 -21.8086 -48.6133 -48.6133 c 0 -26.8047 21.8086 -48.6133 48.6133 -48.6133 s 48.6133 21.8086 48.6133 48.6133 c 0 26.8047 -21.8086 48.6133 -48.6133 48.6133 Z m 0 0" data-original="#000000" data-old_color="#000000" fill="#FFFFFF"/><path class="active-path" d="m 256 296.598 c -12.9766 0 -23.5313 10.5547 -23.5313 23.5313 c 0 12.9727 10.5547 23.5313 23.5313 23.5313 c 12.9727 0 23.5313 -10.5586 23.5313 -23.5313 c 0 -12.9766 -10.5547 -23.5313 -23.5313 -23.5313 Z m 0 32.0625 c -4.70703 0 -8.53125 -3.82813 -8.53125 -8.53125 s 3.82813 -8.53125 8.53125 -8.53125 s 8.53125 3.82813 8.53125 8.53125 s -3.82813 8.53125 -8.53125 8.53125 Z m 0 0" data-original="#000000" data-old_color="#000000" fill="#FFFFFF"/></g> </svg>
